<?xml version="1.0" encoding="UTF-8" standalone="no"?>
<svg
   viewBox="0 0 65 65"
   fill="#fff"
   version="1.1"
   id="svg28"
   sodipodi:docname="steam_logo_white.svg"
   xml:space="preserve"
   inkscape:version="1.2.2 (b0a8486541, 2022-12-01)"
   xmlns:inkscape="http://www.inkscape.org/namespaces/inkscape"
   xmlns:sodipodi="http://sodipodi.sourceforge.net/DTD/sodipodi-0.dtd"
   xmlns="http://www.w3.org/2000/svg"
   xmlns:svg="http://www.w3.org/2000/svg"><sodipodi:namedview
     id="namedview30"
     pagecolor="#ffffff"
     bordercolor="#000000"
     borderopacity="0.25"
     inkscape:showpageshadow="2"
     inkscape:pageopacity="0.0"
     inkscape:pagecheckerboard="0"
     inkscape:deskcolor="#d1d1d1"
     showgrid="false"
     inkscape:zoom="15.415385"
     inkscape:cx="43.430638"
     inkscape:cy="32.110778"
     inkscape:window-width="2560"
     inkscape:window-height="1387"
     inkscape:window-x="1912"
     inkscape:window-y="-8"
     inkscape:window-maximized="1"
     inkscape:current-layer="svg28" /><defs
     id="defs19"><linearGradient
       id="A"
       x2="50%"
       x1="50%"
       y2="100%"
       y1="0%"><stop
         stop-color="#111d2e"
         offset="0%"
         id="stop4" /><stop
         stop-color="#051839"
         offset="21.2%"
         id="stop6" /><stop
         stop-color="#0a1b48"
         offset="40.7%"
         id="stop8" /><stop
         stop-color="#132e62"
         offset="58.1%"
         id="stop10" /><stop
         stop-color="#144b7e"
         offset="73.8%"
         id="stop12" /><stop
         stop-color="#136497"
         offset="87.3%"
         id="stop14" /><stop
         stop-color="#1387b8"
         offset="100%"
         id="stop16" /></linearGradient></defs><g
     id="g1076"
     transform="matrix(1.0077496,0,0,1.0067455,-173.06192,-38.868801)"
     style="fill:#d534fd;fill-opacity:1"><path
       d="m 203.92754,38.624752 c -16.9678,0 -30.86813,13.083269 -32.18902,29.710077 l 17.31245,7.157902 c 1.46692,-1.00326 3.23905,-1.591051 5.14553,-1.591051 0.17086,0 0.34099,0.0073 0.50966,0.01534 l 7.69897,-11.159258 c 0,-0.0533 0,-0.105142 0,-0.157719 0,-6.716876 5.46389,-12.181504 12.18151,-12.181504 6.71687,0 12.18076,5.464628 12.18076,12.181504 0,6.716877 -5.46389,12.182235 -12.18076,12.182235 -0.0927,0 -0.18474,0 -0.27674,-0.0073 l -10.98037,7.834774 c 0.008,0.142384 0.011,0.287689 0.011,0.432264 0,5.042584 -4.10139,9.143245 -9.14325,9.143245 -4.4256,0 -8.12611,-3.158736 -8.96436,-7.341907 l -12.38157,-5.115602 c 3.83342,13.557881 16.28946,23.497748 31.07623,23.497748 17.83963,0 32.30074,-14.461838 32.30074,-32.299272 0,-17.840358 -14.46184,-32.301468 -32.30074,-32.301468"
       id="path1043"
       style="fill:#d534fd;fill-opacity:1;stroke-width:0.730175" /><path
       d="m 191.97969,87.635534 -3.96777,-1.639243 c 0.70316,1.464001 1.91963,2.689964 3.53478,3.363185 3.49169,1.454508 7.51715,-0.202258 8.97239,-3.696875 0.70461,-1.689621 0.709,-3.555217 0.01,-5.249222 -0.69732,-1.694737 -2.01309,-3.016352 -3.70491,-3.721701 -1.67867,-0.698778 -3.47708,-0.673221 -5.05719,-0.07667 l 4.09848,1.694735 c 2.57532,1.073357 3.79325,4.030564 2.7199,6.605888 -1.07117,2.576056 -4.03057,3.793988 -6.60589,2.719901"
       id="path1045"
       style="fill:#d534fd;fill-opacity:1;stroke-width:0.730175" /><path
       d="m 222.70179,62.600037 c 0,-4.475241 -3.64065,-8.116622 -8.11662,-8.116622 -4.47524,0 -8.11663,3.641381 -8.11663,8.116622 0,4.47597 3.64139,8.115891 8.11663,8.115891 4.47597,0 8.11662,-3.64065 8.11662,-8.115891 m -14.20043,-0.01387 c 0,-3.367566 2.73012,-6.096958 6.09768,-6.096958 3.36757,0 6.09769,2.729392 6.09769,6.096958 0,3.367565 -2.73012,6.096959 -6.09769,6.096959 -3.36756,0 -6.09768,-2.730123 -6.09768,-6.096959"
       id="path1047"
       style="fill:#d534fd;fill-opacity:1;stroke-width:0.730175" /></g></svg>
