<?xml version="1.0" encoding="UTF-8" standalone="no"?>
<svg
   height="50"
   width="50"
   viewBox="-35.20005 -41.33325 305.0671 247.9995"
   version="1.1"
   id="svg4"
   sodipodi:docname="YouTube-Icon-White-Logo.wine.svg"
   inkscape:version="1.2.2 (b0a8486541, 2022-12-01)"
   xmlns:inkscape="http://www.inkscape.org/namespaces/inkscape"
   xmlns:sodipodi="http://sodipodi.sourceforge.net/DTD/sodipodi-0.dtd"
   xmlns="http://www.w3.org/2000/svg"
   xmlns:svg="http://www.w3.org/2000/svg">
  <defs
     id="defs8" />
  <sodipodi:namedview
     id="namedview6"
     pagecolor="#ffffff"
     bordercolor="#000000"
     borderopacity="0.25"
     inkscape:showpageshadow="2"
     inkscape:pageopacity="0.0"
     inkscape:pagecheckerboard="0"
     inkscape:deskcolor="#d1d1d1"
     showgrid="false"
     inkscape:zoom="20.04"
     inkscape:cx="25.02495"
     inkscape:cy="25"
     inkscape:window-width="2560"
     inkscape:window-height="1387"
     inkscape:window-x="1912"
     inkscape:window-y="-8"
     inkscape:window-maximized="1"
     inkscape:current-layer="svg4" />
  <path
     d="M 86.793942,127.06564 V 38.268633 L 164.8387,82.668409 Z M 260.39499,10.328064 c -3.43436,-12.9306883 -13.55292,-23.114146 -26.39963,-26.570134 -23.28592,-6.280839 -116.6625,-6.280839 -116.6625,-6.280839 0,0 -93.375296,0 -116.66122377,6.280839 C -12.17507,-12.786082 -22.293633,-2.6026243 -25.72799,10.328064 c -6.240119,23.437351 -6.240119,72.339072 -6.240119,72.339072 0,0 0,48.899174 6.240119,72.337804 3.434357,12.93196 13.551647,23.11414 26.39962623,26.57268 23.28592777,6.27829 116.66122377,6.27829 116.66122377,6.27829 0,0 93.37658,0 116.6625,-6.27829 12.84671,-3.45854 22.96527,-13.64072 26.39963,-26.57268 6.24012,-23.43863 6.24012,-72.339076 6.24012,-72.339076 0,0 0,-48.900449 -6.24012,-72.3378"
     fill="#ffffff"
     id="path2"
     style="stroke-width:1.27246;fill:#d534fd;fill-opacity:1" />
</svg>
