<?xml version="1.0" encoding="UTF-8" standalone="no"?>
<svg
   height="50"
   width="50"
   viewBox="-35.20005 -41.33325 305.0671 247.9995"
   version="1.1"
   id="svg4"
   sodipodi:docname="YouTube-Icon-White-Logo.wine.svg"
   inkscape:version="1.2.2 (b0a8486541, 2022-12-01)"
   xmlns:inkscape="http://www.inkscape.org/namespaces/inkscape"
   xmlns:sodipodi="http://sodipodi.sourceforge.net/DTD/sodipodi-0.dtd"
   xmlns="http://www.w3.org/2000/svg"
   xmlns:svg="http://www.w3.org/2000/svg">
  <defs
     id="defs8">
    <inkscape:path-effect
       effect="powerclip"
       id="path-effect940"
       is_visible="true"
       lpeversion="1"
       inverse="true"
       flatten="false"
       hide_clip="false"
       message="Use fill-rule evenodd on &lt;b&gt;fill and stroke&lt;/b&gt; dialog if no flatten result after convert clip to paths." />
    <clipPath
       clipPathUnits="userSpaceOnUse"
       id="clipPath936">
      <path
         d="M 95.102894,114.98589 V 50.348039 L 151.91388,82.667891 Z M 221.472,30.009313 C 218.97203,20.5967 211.60644,13.183868 202.25496,10.668163 185.30448,6.0961588 117.33303,6.0961588 117.33303,6.0961588 c 0,0 -67.970512,0 -84.920992,4.5720042 C 23.060557,13.183868 15.694969,20.5967 13.195004,30.009313 8.6526452,47.07002 8.6526452,82.666964 8.6526452,82.666964 c 0,0 0,35.595086 4.5423588,52.656726 2.499965,9.41354 9.864626,16.82544 19.217034,19.34301 16.95048,4.57014 84.920992,4.57014 84.920992,4.57014 0,0 67.97145,0 84.92193,-4.57014 9.35148,-2.51757 16.71707,-9.92947 19.21704,-19.34301 4.54236,-17.06164 4.54236,-52.657654 4.54236,-52.657654 0,0 0,-35.596016 -4.54236,-52.656723"
         fill="#ffffff"
         id="path938"
         style="display:none;fill:#d534fd;fill-opacity:1;stroke-width:0.926263" />
      <path
         id="lpe_path-effect940"
         style="fill:#d534fd;fill-opacity:1;stroke-width:0.926263"
         class="powerclip"
         d="M -34.602654,-71.853065 H 272.48988 V 235.23946 H -34.602654 Z M 95.102894,114.98589 151.91388,82.667891 95.102894,50.348039 Z M 221.472,30.009313 C 218.97203,20.5967 211.60644,13.183868 202.25496,10.668163 185.30448,6.0961588 117.33303,6.0961588 117.33303,6.0961588 c 0,0 -67.970512,0 -84.920992,4.5720042 C 23.060557,13.183868 15.694969,20.5967 13.195004,30.009313 8.6526452,47.07002 8.6526452,82.666964 8.6526452,82.666964 c 0,0 0,35.595086 4.5423588,52.656726 2.499965,9.41354 9.864626,16.82544 19.217034,19.34301 16.95048,4.57014 84.920992,4.57014 84.920992,4.57014 0,0 67.97145,0 84.92193,-4.57014 9.35148,-2.51757 16.71707,-9.92947 19.21704,-19.34301 4.54236,-17.06164 4.54236,-52.657654 4.54236,-52.657654 0,0 0,-35.596016 -4.54236,-52.656723" />
    </clipPath>
  </defs>
  <sodipodi:namedview
     id="namedview6"
     pagecolor="#ffffff"
     bordercolor="#000000"
     borderopacity="0.25"
     inkscape:showpageshadow="2"
     inkscape:pageopacity="0.0"
     inkscape:pagecheckerboard="0"
     inkscape:deskcolor="#d1d1d1"
     showgrid="false"
     inkscape:zoom="7.08521"
     inkscape:cx="-0.70569539"
     inkscape:cy="27.52212"
     inkscape:window-width="2560"
     inkscape:window-height="1027"
     inkscape:window-x="-8"
     inkscape:window-y="-8"
     inkscape:window-maximized="1"
     inkscape:current-layer="svg4" />
  <path
     style="fill:#d534fd;stroke-width:6.10134"
     id="path339"
     clip-path="url(#clipPath936)"
     inkscape:path-effect="#path-effect940"
     sodipodi:type="arc"
     sodipodi:cx="118.94361"
     sodipodi:cy="81.693199"
     sodipodi:rx="148.54626"
     sodipodi:ry="148.54626"
     d="M 267.48988,81.693199 A 148.54626,148.54626 0 0 1 118.94361,230.23946 148.54626,148.54626 0 0 1 -29.602654,81.693199 148.54626,148.54626 0 0 1 118.94361,-66.853065 148.54626,148.54626 0 0 1 267.48988,81.693199 Z"
     transform="matrix(1.026842,0,0,1.026842,-4.8028019,-1.2195142)" />
</svg>
